<?xml version="1.0" standalone="no"?>
<!DOCTYPE svg PUBLIC "-//W3C//DTD SVG 20010904//EN"
 "http://www.w3.org/TR/2001/REC-SVG-20010904/DTD/svg10.dtd">
<svg version="1.0" xmlns="http://www.w3.org/2000/svg"
 width="600.000000pt" height="600.000000pt" viewBox="0 0 600.000000 600.000000"
 preserveAspectRatio="xMidYMid meet">
<metadata>
Created by potrace 1.14, written by Peter Selinger 2001-2017
</metadata>
<g transform="translate(0.000000,600.000000) scale(0.100000,-0.100000)"
fill="#000000" stroke="none">
<path d="M2910 5627 c-40 -20 -125 -142 -195 -279 -36 -71 -63 -128 -60 -128
3 0 1 -9 -5 -21 -10 -18 -4 -31 47 -97 32 -42 60 -79 64 -82 19 -17 113 -174
140 -236 18 -41 36 -74 40 -74 4 0 15 23 25 50 10 28 22 50 26 50 4 0 8 7 8
15 0 16 59 118 72 123 4 2 8 8 8 13 0 6 4 15 10 22 5 7 41 53 79 103 l69 91
-26 64 c-64 161 -176 339 -241 381 -31 21 -29 21 -61 5z m82 -206 c34 -40 106
-166 113 -198 2 -10 7 -27 10 -38 4 -13 -3 -29 -20 -47 -14 -16 -23 -28 -18
-28 4 0 -1 -6 -10 -12 -20 -16 -117 -176 -117 -195 0 -28 -17 -11 -40 40 -24
53 -59 109 -72 115 -5 2 -8 10 -8 17 0 7 -3 15 -8 17 -19 8 -72 87 -62 93 6 3
8 10 5 15 -3 5 -1 11 5 15 6 4 8 11 5 16 -4 5 -1 9 4 9 6 0 10 4 9 8 -5 15 91
170 118 191 37 29 47 27 86 -18z"/>
<path d="M1868 5562 c-21 -24 -26 -42 -35 -124 -15 -141 -7 -669 11 -754 4
-18 11 -67 21 -149 2 -11 8 -40 15 -65 7 -25 14 -55 16 -66 2 -12 15 -59 29
-105 14 -46 27 -91 29 -99 25 -96 152 -343 209 -407 31 -34 9 -28 -54 17 -32
22 -62 40 -67 40 -6 0 -12 4 -14 8 -6 14 -276 137 -323 147 -5 1 -30 7 -55 14
-25 8 -52 15 -60 16 -8 2 -15 4 -15 5 0 2 -35 10 -62 15 -11 1 -31 6 -43 10
-12 4 -33 9 -46 11 -13 2 -35 6 -49 8 -14 2 -56 9 -93 15 -61 11 -179 22 -209
21 -7 0 -19 0 -25 1 -94 3 -538 3 -538 -1 0 -3 -10 -5 -22 -6 -52 -1 -101 -13
-109 -26 -5 -7 -9 -8 -10 -3 0 6 -4 1 -8 -10 -8 -19 19 -75 53 -111 6 -7 22
-27 36 -45 45 -59 286 -296 445 -437 94 -83 344 -250 428 -285 15 -6 27 -15
27 -19 0 -4 4 -8 10 -8 5 0 33 -11 62 -24 117 -53 247 -100 308 -111 91 -16
150 -28 148 -30 -2 -2 -29 -6 -61 -9 -32 -4 -102 -21 -155 -37 -53 -16 -101
-31 -107 -32 -5 -2 -20 -9 -32 -15 -13 -7 -23 -10 -23 -7 0 11 -288 -144 -374
-201 -48 -32 -95 -63 -104 -69 -80 -51 -241 -195 -420 -375 -171 -172 -222
-232 -241 -283 -12 -31 4 -52 46 -61 16 -4 39 -9 53 -13 40 -10 576 -11 680
-2 52 5 147 18 210 29 156 27 156 27 235 50 39 11 80 23 91 25 12 3 38 12 58
20 20 8 37 15 38 14 5 -1 58 20 130 52 81 36 179 91 229 131 44 34 60 37 32 5
-52 -58 -183 -293 -183 -329 0 -8 -4 -18 -9 -23 -10 -12 -52 -133 -54 -157 -1
-10 -4 -18 -7 -18 -4 0 -7 -6 -7 -12 0 -7 -7 -42 -16 -78 -9 -36 -18 -76 -21
-90 -3 -14 -7 -36 -10 -50 -31 -140 -41 -294 -40 -610 0 -157 3 -302 7 -323 8
-42 24 -78 41 -89 12 -8 92 33 129 68 14 13 28 24 31 24 3 0 21 15 40 33 18
17 58 55 87 83 90 85 256 261 327 347 76 91 175 227 166 227 -3 0 1 7 9 15 8
8 32 45 53 82 20 37 42 71 48 75 6 4 7 8 3 8 -5 0 0 15 11 33 62 101 157 377
161 470 1 25 17 21 18 -5 2 -46 21 -135 33 -158 5 -10 7 -19 5 -22 -9 -9 86
-240 136 -328 4 -8 18 -33 30 -55 24 -46 166 -260 183 -278 7 -7 25 -30 41
-52 64 -85 403 -432 494 -505 56 -45 115 -74 134 -67 18 7 34 58 44 143 14
116 6 647 -11 739 -2 11 -7 43 -10 70 -20 142 -71 333 -130 490 -47 123 -144
301 -193 353 -24 25 -13 24 20 -2 17 -15 37 -30 42 -34 10 -8 93 -56 155 -89
85 -46 358 -143 402 -143 9 0 19 -4 22 -9 3 -5 16 -9 28 -9 13 0 70 -9 128
-21 58 -11 123 -22 145 -25 69 -10 304 -20 460 -20 281 0 407 18 413 61 3 19
-48 101 -97 157 -52 58 -309 313 -381 376 -40 36 -79 71 -86 78 -7 6 -15 12
-18 12 -5 0 -33 21 -60 45 -14 13 -187 128 -201 134 -5 2 -27 15 -48 28 -91
57 -314 158 -372 169 -11 2 -51 12 -89 24 -38 11 -84 21 -103 22 -36 2 -57 17
-26 19 10 0 27 2 38 4 11 2 36 7 55 10 49 8 218 64 261 86 20 10 39 15 43 12
3 -4 6 -1 6 5 0 7 8 12 18 12 9 0 26 7 36 15 10 8 23 12 27 9 5 -3 9 -1 9 5 0
5 16 15 35 22 19 7 35 17 35 21 0 4 5 8 12 8 23 0 337 211 346 232 2 5 8 6 13
2 5 -3 9 2 9 10 0 9 3 16 8 16 18 1 260 226 387 362 82 88 123 140 140 182 14
34 14 36 -7 50 -29 19 -63 26 -163 33 -161 13 -609 5 -705 -11 -14 -3 -45 -7
-70 -10 -25 -3 -56 -8 -70 -11 -14 -3 -41 -8 -60 -11 -39 -7 -149 -35 -225
-57 -59 -17 -193 -68 -250 -94 -70 -32 -215 -116 -215 -125 0 -4 -5 -8 -12 -8
-6 0 -21 -8 -32 -17 -11 -10 -5 2 14 27 19 25 38 47 42 48 5 2 8 8 8 12 0 5
17 37 37 72 21 35 38 65 38 68 0 3 8 21 17 40 47 99 115 297 132 384 3 12 11
53 19 91 28 127 31 152 44 295 10 115 10 601 0 650 -3 19 -9 45 -11 57 -19 91
-58 81 -211 -51 -117 -102 -385 -377 -455 -466 -108 -139 -215 -305 -277 -429
-30 -60 -65 -139 -67 -151 -1 -3 -4 -9 -7 -15 -6 -9 -30 -77 -35 -100 -9 -36
-14 -54 -23 -82 -5 -17 -7 -34 -3 -37 3 -3 0 -6 -7 -6 -7 0 -10 -4 -7 -9 3 -4
2 -28 -2 -52 l-8 -44 -12 60 c-6 33 -14 72 -17 88 -15 74 -74 226 -137 355
-39 78 -74 142 -78 142 -3 0 -12 16 -20 35 -8 19 -17 35 -20 35 -3 0 -17 19
-30 43 -13 23 -26 44 -29 47 -3 3 -31 39 -63 81 -148 199 -533 577 -626 616
-25 10 -32 10 -44 -5z m228 -411 c72 -44 347 -321 411 -413 14 -21 30 -38 34
-38 5 0 9 -6 9 -13 0 -8 9 -22 20 -32 11 -10 20 -22 20 -26 0 -4 13 -27 29
-51 95 -145 175 -350 187 -488 l6 -66 129 0 c117 0 129 1 130 18 2 27 6 58 8
61 1 1 4 18 6 37 6 56 51 190 95 278 94 194 196 329 405 538 169 170 244 226
268 202 8 -7 14 -20 15 -28 0 -8 4 -40 8 -70 13 -100 6 -457 -11 -555 -7 -39
-24 -123 -31 -155 -3 -14 -7 -34 -9 -45 -2 -11 -9 -36 -16 -55 -43 -123 -63
-176 -68 -180 -3 -3 -7 -11 -9 -19 -6 -26 -80 -147 -111 -179 -16 -18 -26 -32
-23 -32 3 0 -1 -6 -10 -12 -14 -11 -4 -25 77 -104 l92 -92 29 25 c157 136 436
236 749 269 115 12 457 9 523 -6 61 -13 63 -14 57 -39 -9 -35 -44 -81 -129
-169 -39 -40 -72 -77 -74 -83 -2 -5 -7 -9 -11 -9 -5 0 -32 -23 -62 -51 -106
-101 -349 -284 -349 -263 0 4 -8 0 -17 -8 -17 -14 -81 -51 -93 -53 -3 0 -32
-13 -65 -28 -33 -16 -68 -29 -77 -30 -10 -1 -18 -6 -18 -11 0 -5 -2 -7 -6 -4
-3 3 -26 -1 -52 -9 -54 -16 -96 -23 -155 -27 l-42 -3 -1 -130 -2 -130 37 -1
c20 0 39 -1 44 -2 14 -4 22 -6 72 -14 28 -4 55 -11 60 -14 6 -4 17 -7 25 -9
85 -13 380 -176 495 -273 149 -127 371 -351 402 -407 21 -37 21 -42 7 -54 -19
-16 -29 -18 -119 -25 -60 -5 -260 -8 -275 -4 -3 0 -48 3 -100 5 -52 2 -111 6
-130 9 -118 17 -190 30 -190 35 0 3 -12 7 -28 8 -53 4 -207 59 -293 104 -131
68 -131 68 -248 183 -45 44 -81 83 -81 87 0 5 11 25 25 45 14 20 25 43 25 50
0 8 4 14 8 14 9 0 43 71 48 100 1 8 9 33 17 55 8 22 18 58 22 80 9 59 17 128
16 143 -2 26 -2 38 0 57 1 11 -1 34 -4 50 -3 17 -8 47 -11 69 -10 62 -55 186
-91 251 -138 245 -393 416 -660 440 -22 3 -52 6 -67 8 -16 2 -28 0 -28 -5 0
-5 -8 -4 -19 1 -10 6 -21 7 -25 4 -3 -4 -25 -8 -49 -9 -61 -4 -95 -10 -157
-30 -30 -10 -57 -18 -60 -18 -17 -3 -134 -65 -181 -97 -62 -41 -169 -142 -169
-159 0 -5 -7 -10 -16 -10 -8 0 -12 -4 -9 -10 3 -5 1 -10 -4 -10 -6 0 -11 -6
-11 -13 0 -8 -9 -22 -20 -32 -11 -10 -20 -23 -20 -28 0 -6 -6 -18 -13 -26 -23
-27 -82 -185 -92 -243 -13 -79 -16 -109 -16 -164 0 -99 11 -173 43 -269 70
-217 205 -378 409 -489 64 -35 159 -72 209 -81 14 -3 36 -7 50 -11 55 -13 228
-12 296 1 87 17 177 46 235 76 24 13 47 22 52 21 4 -1 7 1 7 6 0 4 15 16 34
26 l34 18 80 -78 c43 -44 98 -107 121 -141 40 -58 89 -144 92 -161 1 -7 6 -19
30 -79 6 -16 13 -35 15 -43 2 -8 13 -46 24 -85 11 -38 22 -81 25 -95 2 -14 6
-37 9 -51 3 -14 8 -45 10 -70 3 -24 5 -44 6 -44 10 0 16 -482 6 -540 -2 -16
-5 -30 -6 -30 -1 0 -3 -9 -5 -19 -5 -24 -23 -36 -44 -29 -49 18 -279 236 -410
389 -95 113 -262 392 -276 463 -2 9 -4 17 -4 19 -1 1 -1 4 -1 7 0 3 -7 22 -15
42 -14 38 -22 71 -31 128 -2 17 -6 44 -8 60 -2 17 -5 34 -5 38 -1 5 -6 5 -12
1 -9 -5 -188 -8 -215 -3 -22 4 -30 -3 -31 -23 -3 -89 -31 -207 -72 -300 -11
-27 -17 -48 -13 -48 4 0 2 -4 -4 -8 -6 -4 -24 -32 -39 -62 -15 -30 -39 -73
-53 -95 -14 -22 -24 -42 -23 -44 2 -2 -1 -7 -6 -10 -4 -3 -21 -25 -37 -49 -78
-115 -363 -412 -452 -471 -76 -50 -90 -43 -102 54 -8 58 -7 402 1 490 26 290
149 617 283 754 l24 23 -28 22 c-15 11 -57 51 -93 89 l-66 69 -29 -27 c-71
-67 -211 -143 -339 -185 -113 -37 -99 -33 -145 -44 -182 -42 -254 -49 -535
-48 -224 0 -278 4 -301 23 -31 25 12 87 172 244 156 155 196 190 280 250 44
31 86 61 94 68 8 7 29 19 45 27 17 8 32 17 35 21 7 8 199 101 213 103 7 1 17
4 22 8 9 5 72 24 120 35 46 10 94 17 150 22 6 1 10 51 10 130 0 108 -2 129
-15 129 -40 1 -135 15 -160 25 -8 3 -28 9 -45 13 -40 10 -44 11 -50 14 -3 1
-8 3 -12 5 -5 1 -21 8 -38 15 -16 7 -32 14 -35 14 -3 1 -43 21 -90 45 -171 86
-312 194 -500 381 -191 190 -231 248 -188 271 52 28 503 30 653 4 142 -25 282
-60 340 -84 121 -52 174 -76 196 -92 15 -10 30 -19 33 -19 9 0 20 -9 75 -57
l44 -39 93 94 c90 90 93 95 76 111 -82 71 -219 369 -246 533 -3 18 -10 56 -15
85 -20 102 -25 181 -25 383 0 323 11 359 90 311z m982 -1598 c31 -8 62 -19 67
-23 6 -5 15 -9 20 -11 32 -8 65 -24 65 -31 0 -4 7 -8 14 -8 32 0 229 -220 199
-220 -5 0 -3 -4 3 -8 13 -9 41 -85 50 -137 15 -85 6 -234 -17 -277 -5 -10 -7
-18 -4 -18 6 0 -32 -78 -47 -97 -8 -9 -32 9 -96 71 -55 55 -91 82 -99 77 -27
-15 -163 -155 -163 -167 0 -8 36 -50 81 -94 44 -44 78 -84 75 -89 -3 -5 -34
-20 -69 -34 -251 -100 -529 -20 -680 196 -110 156 -134 331 -72 518 55 164
247 329 415 355 19 3 36 7 38 9 10 10 171 1 220 -12z"/>
<path d="M2252 4608 c-1 -7 -3 -37 -5 -66 -3 -29 -7 -56 -10 -59 -3 -3 -2 -15
2 -27 5 -11 5 -30 1 -41 -4 -11 -4 -30 1 -42 5 -13 4 -25 -1 -28 -7 -4 -6 -13
0 -26 8 -13 7 -19 0 -19 -6 0 -8 -5 -4 -11 4 -6 8 -41 10 -78 2 -36 6 -77 10
-91 3 -14 6 -33 6 -42 -1 -10 4 -20 9 -23 5 -4 7 -11 4 -16 -6 -9 27 -127 49
-180 l11 -26 38 24 c30 19 36 27 28 41 -5 9 -14 42 -20 72 -6 30 -14 66 -17
80 -9 36 -15 316 -8 335 5 13 12 11 43 -12 39 -29 113 -104 165 -168 45 -54
108 -145 100 -145 -3 0 4 -14 16 -30 18 -26 26 -29 53 -24 18 3 35 8 40 13 8
8 -67 161 -86 173 -6 4 -9 8 -4 8 29 0 -226 291 -331 376 -52 43 -97 57 -100
32z"/>
<path d="M3565 4598 c-16 -12 -47 -39 -68 -60 -21 -21 -40 -38 -42 -38 -2 0
-28 -25 -57 -57 -29 -31 -62 -66 -74 -78 -45 -46 -137 -179 -180 -261 -25 -48
-44 -87 -42 -89 2 -1 22 -5 45 -9 l41 -6 37 65 c20 36 59 93 88 128 61 74 185
197 198 197 5 0 13 -9 17 -21 10 -25 7 -199 -4 -277 -4 -32 -8 -65 -10 -74 -1
-10 -3 -20 -4 -23 -1 -3 -3 -8 -4 -12 -2 -5 -8 -28 -15 -52 -15 -52 -12 -61
27 -83 l30 -18 26 73 c53 148 70 273 70 512 0 205 -12 231 -79 183z"/>
<path d="M1353 3703 c-12 -2 -27 -11 -34 -19 -20 -24 36 -92 232 -277 84 -81
299 -224 313 -210 3 4 6 0 6 -7 0 -7 3 -10 7 -7 3 4 12 2 20 -5 18 -15 30 -1
37 44 5 32 3 38 -17 44 -82 25 -373 273 -365 312 3 15 17 17 123 17 118 1 271
-16 310 -34 11 -5 34 -12 50 -14 26 -5 33 -1 52 27 l22 33 -27 13 c-42 19
-172 56 -225 64 -27 4 -59 10 -70 13 -27 6 -404 11 -434 6z"/>
<path d="M4012 3675 c-63 -13 -142 -34 -178 -46 l-64 -23 17 -25 c22 -35 39
-51 46 -45 6 6 105 33 151 41 17 3 96 7 176 10 204 6 207 3 99 -105 -93 -94
-173 -156 -259 -204 -59 -32 -60 -33 -54 -68 4 -19 8 -37 11 -39 14 -17 184
78 293 163 145 112 320 294 320 333 0 24 -64 32 -252 31 -160 0 -212 -4 -306
-23z"/>
<path d="M1835 2807 c-44 -23 -115 -66 -158 -96 -81 -57 -259 -220 -321 -295
-37 -45 -51 -89 -28 -92 6 -1 13 -3 15 -4 16 -17 356 -13 481 6 51 8 59 9 74
14 4 1 10 2 14 1 8 -1 76 20 146 45 23 9 42 20 42 25 0 5 -10 23 -21 38 l-21
29 -54 -18 c-30 -11 -54 -17 -54 -15 0 2 -15 -1 -32 -6 -34 -10 -171 -22 -243
-22 -115 1 -125 2 -125 21 0 23 82 109 175 186 87 71 90 73 175 117 36 19 38
22 33 57 -3 20 -8 40 -12 44 -3 4 -42 -12 -86 -35z"/>
<path d="M3946 2818 c-10 -38 -7 -68 8 -68 7 0 30 -11 50 -25 20 -13 36 -22
36 -19 0 3 13 -5 28 -18 16 -12 41 -32 57 -43 50 -35 205 -192 205 -208 0 -19
-38 -24 -158 -21 -110 2 -193 11 -237 24 -122 36 -116 35 -131 14 -7 -10 -18
-25 -25 -32 -6 -7 -9 -15 -8 -16 10 -8 76 -36 94 -39 11 -2 28 -7 37 -12 10
-4 29 -8 43 -9 14 0 25 -4 25 -8 0 -4 9 -5 20 -3 11 2 20 1 20 -3 0 -4 12 -8
28 -9 15 -1 63 -5 107 -9 166 -15 396 -7 418 15 17 17 -23 69 -135 180 -156
155 -243 222 -384 295 -82 42 -90 43 -98 14z"/>
<path d="M2323 2173 c4 -3 1 -16 -7 -27 -7 -12 -17 -37 -22 -56 -4 -19 -9 -38
-10 -42 -1 -5 -2 -9 -4 -10 -2 -3 -10 -37 -14 -58 -1 -8 -5 -28 -9 -45 -17
-80 -20 -124 -20 -300 0 -104 2 -199 4 -210 8 -42 36 -39 97 9 33 26 201 196
243 246 55 64 147 207 174 268 14 32 16 45 7 54 -7 7 -12 9 -12 6 0 -4 -13 -3
-29 2 -27 7 -30 5 -47 -31 -11 -21 -22 -39 -26 -39 -5 0 -8 -5 -8 -10 0 -22
-86 -128 -178 -219 -120 -120 -122 -118 -117 77 3 76 7 148 10 162 4 14 9 40
12 59 3 19 11 52 19 74 19 53 19 52 -20 76 -32 20 -57 28 -43 14z"/>
<path d="M3512 2160 c-12 -10 -28 -20 -34 -22 -7 -3 -9 -12 -4 -24 4 -10 7
-19 6 -19 -1 0 3 -12 9 -28 12 -30 18 -58 28 -127 9 -61 10 -307 1 -316 -27
-26 -227 190 -302 328 -35 62 -39 66 -62 58 -13 -5 -24 -7 -24 -4 0 4 -6 1
-13 -5 -8 -6 -17 -7 -22 -3 -8 8 53 -114 82 -163 10 -16 21 -31 26 -33 4 -2 7
-8 7 -13 0 -30 234 -288 330 -363 61 -48 76 -47 88 9 18 87 12 327 -14 505 -7
52 -61 227 -72 234 -4 2 -17 -4 -30 -14z"/>
<path d="M1058 4870 c-19 -15 -23 -26 -22 -71 0 -30 5 -70 9 -89 5 -19 9 -39
10 -45 1 -5 3 -12 4 -15 3 -6 8 -28 16 -62 7 -37 52 -162 76 -215 14 -31 25
-43 42 -44 23 -1 35 -2 107 -12 130 -19 219 -39 298 -67 48 -17 95 -34 104
-37 15 -4 14 3 -8 58 -13 35 -26 71 -28 79 -2 8 -5 22 -9 30 -9 26 -27 104
-32 140 -2 19 -7 48 -10 64 -3 15 -8 47 -10 70 -2 22 -6 50 -9 61 -2 11 -5 25
-5 31 -1 12 -145 70 -243 98 -152 44 -256 53 -290 26z m252 -131 c36 -6 77
-18 93 -26 15 -7 27 -11 27 -7 0 4 6 1 13 -5 8 -6 17 -8 20 -4 4 3 7 1 7 -6 0
-7 4 -10 8 -7 15 9 34 -11 38 -40 16 -133 21 -157 49 -235 13 -38 22 -69 19
-69 -3 0 -33 9 -67 21 -34 12 -69 22 -78 24 -45 9 -99 17 -138 21 -25 2 -48 7
-52 11 -14 14 -72 197 -74 231 -1 17 -4 35 -7 38 -3 3 -3 17 1 32 7 25 39 43
66 36 6 -1 39 -8 75 -15z"/>
<path d="M4728 4885 c-1 -1 -23 -5 -48 -8 -94 -11 -256 -60 -377 -114 -18 -7
-33 -22 -34 -31 0 -9 -2 -26 -4 -37 -3 -11 -7 -38 -9 -60 -16 -132 -45 -257
-83 -352 -14 -35 -23 -66 -21 -69 3 -2 43 9 89 25 93 33 145 47 204 56 22 3
65 9 95 14 30 5 64 9 75 10 11 0 29 3 40 5 11 2 26 5 33 5 6 1 12 8 12 16 0 8
5 15 11 15 5 0 8 4 5 8 -3 5 1 20 8 34 18 34 73 201 86 263 27 121 24 199 -8
209 -26 8 -70 15 -74 11z m-38 -159 c5 -14 7 -35 4 -48 -2 -13 -7 -38 -10 -56
-3 -18 -14 -59 -25 -90 -11 -31 -22 -66 -24 -76 -7 -29 -31 -49 -62 -52 -64
-7 -156 -21 -160 -24 -2 -2 -7 -4 -13 -5 -5 -1 -11 -3 -12 -4 -2 -2 -14 -5
-27 -7 -14 -2 -37 -11 -52 -18 -15 -8 -30 -12 -32 -10 -2 3 7 32 20 66 14 34
26 71 28 82 3 25 15 103 20 131 2 11 4 28 4 37 1 24 82 59 192 83 12 2 23 6
25 8 2 2 29 5 59 6 50 2 56 0 65 -23z"/>
<path d="M5070 3254 c-86 -70 -219 -158 -285 -188 -33 -16 -76 -35 -94 -44
l-35 -16 52 -24 c28 -13 53 -22 54 -21 2 1 22 -10 45 -24 24 -15 45 -27 48
-27 9 0 173 -117 226 -161 27 -23 54 -37 65 -35 64 13 276 124 371 195 68 51
88 78 79 109 -14 44 -112 119 -246 188 -41 21 -78 43 -81 48 -4 5 -12 5 -18 2
-6 -4 -11 -2 -11 3 0 6 -8 11 -18 11 -10 0 -22 4 -27 9 -6 5 -23 11 -40 14
-25 5 -39 -2 -85 -39z m176 -115 c56 -28 120 -69 143 -91 l42 -39 -28 -33
c-15 -18 -30 -32 -32 -30 -2 2 -12 -6 -24 -17 -11 -10 -27 -19 -34 -19 -7 0
-13 -3 -13 -7 0 -5 -19 -16 -43 -27 -23 -10 -50 -22 -60 -28 -46 -23 -66 -27
-79 -15 -7 7 -29 24 -48 37 -19 13 -40 29 -47 35 -29 24 -42 32 -105 63 -38
19 -68 37 -68 40 0 4 20 15 44 25 38 16 115 61 151 89 60 47 89 68 94 68 3 0
52 -23 107 -51z"/>
<path d="M693 3275 c-18 -8 -33 -11 -33 -7 0 4 -4 2 -8 -3 -4 -6 -27 -19 -52
-30 -25 -11 -47 -22 -50 -25 -3 -3 -25 -16 -50 -29 -133 -71 -223 -151 -213
-190 5 -19 68 -91 79 -91 4 0 27 -15 53 -33 40 -29 267 -145 312 -160 10 -3
62 29 135 84 65 48 130 94 144 101 14 7 27 15 30 18 3 4 44 24 93 45 48 22 87
42 87 45 0 3 -26 16 -58 30 -96 41 -174 88 -291 176 -63 46 -121 84 -130 84
-9 -1 -31 -7 -48 -15z m117 -136 c81 -61 150 -104 193 -120 20 -7 37 -15 37
-19 0 -3 -25 -16 -56 -30 -30 -13 -88 -48 -127 -77 -114 -84 -104 -82 -199
-35 -46 22 -96 49 -113 59 -35 21 -85 69 -85 81 0 30 186 157 242 166 10 1 21
5 24 9 14 13 30 7 84 -34z"/>
<path d="M4160 1791 c0 -6 4 -20 9 -33 11 -28 22 -61 22 -68 1 -3 4 -9 8 -15
8 -10 22 -55 27 -85 1 -8 5 -26 8 -40 4 -14 9 -40 12 -59 3 -18 8 -43 10 -55
2 -11 7 -41 10 -66 3 -25 7 -54 9 -65 2 -11 4 -27 4 -36 1 -17 138 -79 174
-79 9 0 17 -4 17 -8 0 -5 6 -9 13 -10 22 -2 42 -7 55 -15 6 -5 12 -6 12 -3 0
2 15 0 33 -5 39 -12 68 -18 124 -23 22 -2 46 -6 51 -10 6 -3 13 -2 17 4 4 6
10 8 15 5 5 -3 18 3 30 15 17 17 19 29 15 92 -2 40 -8 88 -14 106 -5 18 -10
35 -10 37 0 3 -12 45 -27 93 -34 113 -78 208 -95 209 -14 1 -121 14 -149 18
-101 15 -192 36 -250 57 -30 11 -61 20 -67 21 -7 0 -13 5 -13 10 0 6 -3 7 -6
4 -4 -3 -15 -2 -25 4 -13 6 -19 6 -19 0z m175 -137 c29 -12 126 -37 210 -53 3
-1 18 -1 34 -1 43 0 57 -20 91 -129 32 -104 43 -179 29 -202 -14 -24 -107 -15
-215 20 -54 17 -104 35 -111 39 -6 4 -15 30 -18 57 -10 85 -26 158 -46 216
-27 79 -29 76 26 53z"/>
<path d="M1678 1768 c-2 -5 -13 -10 -24 -12 -12 -3 -42 -11 -66 -20 -25 -8
-83 -22 -129 -31 -46 -8 -99 -20 -117 -24 -22 -6 -30 -6 -25 1 3 7 1 8 -6 4
-6 -4 -35 -10 -64 -13 -55 -6 -72 -19 -82 -65 -4 -16 -11 -28 -16 -28 -6 0 -8
-4 -4 -9 3 -5 0 -13 -6 -16 -5 -4 -8 -13 -5 -21 3 -8 1 -14 -4 -14 -6 0 -10
-7 -10 -15 0 -9 -9 -45 -21 -81 -23 -71 -22 -68 -34 -139 -15 -95 -13 -139 10
-155 22 -17 165 -22 165 -6 0 5 3 7 6 4 3 -3 29 1 57 8 29 8 61 17 71 19 11 3
42 12 70 21 28 10 52 16 54 15 1 -1 16 6 32 14 16 8 31 14 32 13 9 -9 53 36
54 54 3 47 16 143 20 149 2 4 6 27 9 50 9 69 35 168 65 242 l28 67 -29 -2
c-16 -1 -30 -6 -31 -10z m-88 -160 c-20 -56 -34 -113 -45 -188 -4 -25 -9 -52
-10 -60 -2 -8 -4 -20 -4 -27 -2 -22 -179 -80 -270 -88 -71 -6 -83 12 -66 100
6 36 10 67 7 70 -3 3 0 5 7 5 7 0 10 4 7 9 -5 8 46 148 56 155 2 1 45 8 96 15
52 7 124 23 160 36 37 13 70 24 74 24 4 1 -1 -23 -12 -51z"/>
<path d="M2878 1202 c-46 -95 -96 -171 -217 -328 l-34 -45 33 -77 c66 -153
137 -271 206 -339 49 -50 69 -53 111 -15 39 36 114 138 106 146 -4 3 -1 6 5 6
7 0 12 6 12 14 0 8 3 16 8 18 11 5 112 223 112 242 0 9 -24 47 -53 84 -81 102
-161 228 -201 315 -19 42 -36 77 -38 77 -2 0 -24 -44 -50 -98z m115 -204 c21
-36 49 -76 61 -89 12 -13 30 -38 40 -54 18 -30 18 -31 -24 -118 -23 -48 -46
-87 -51 -87 -5 0 -9 -6 -9 -13 0 -21 -60 -87 -79 -87 -38 0 -125 121 -170 236
l-19 51 25 29 c32 37 123 171 123 181 0 4 10 24 22 43 l21 35 11 -31 c6 -17
28 -60 49 -96z"/>
</g>
</svg>
